REM DIRINDEX 1\8,1\2\11,1\3\12,1\3\14,1\5\15,1\5\16,1\6\17,1\6\18,1\4\19,1\4\20,1\4\21,1\4\22,1\7\23,1\7\24,1\7\25,1\2\9\26,1\2\9\27,1\2\10\28,1\2\10\29,1\2\10\30,1\2\10\31,1\2\10\32,1\3\13\33,1\3\13\34,1\3\13\35
REM DIRNAME cjc123,folder01,folder02,folder03,folder04,folder05,folder06,folder07,folder08,folder09,folder10,folder11,folder12,folder13,folder14,folder15,folder16,folder17,folder18,folder19,folder20,folder21,folder22,folder23,folder24,folder25,folder26,folder27,folder28,folder29,folder30,folder31,folder32,folder33,folder34
TITLE ""
FILE "2-54 054_UNIT5_SET2.mp3" MP3
  TRACK 01 AUDIO
    TITLE "11:cjc123_5648"
    INDEX 01 00:00:00
  TRACK 02 AUDIO
    TITLE "0:"
    INDEX 01 00:02:47
  TRACK 03 AUDIO
    TITLE "28:cjc123_5649"
    INDEX 01 00:03:31
  TRACK 04 AUDIO
    TITLE "0:"
    INDEX 01 00:04:29
  TRACK 05 AUDIO
    TITLE "29:cjc123_5650"
    INDEX 01 00:04:36
  TRACK 06 AUDIO
    TITLE "0:"
    INDEX 01 00:06:06
  TRACK 07 AUDIO
    TITLE "30:cjc123_5651"
    INDEX 01 00:06:22
  TRACK 08 AUDIO
    TITLE "0:"
    INDEX 01 00:07:17
  TRACK 09 AUDIO
    TITLE "31:cjc123_5652"
    INDEX 01 00:07:70
  TRACK 10 AUDIO
    TITLE "0:"
    INDEX 01 00:13:00
  TRACK 11 AUDIO
    TITLE "32:cjc123_5653"
    INDEX 01 00:13:24
  TRACK 12 AUDIO
    TITLE "0:"
    INDEX 01 00:18:21
  TRACK 13 AUDIO
    TITLE "28:cjc123_5654"
    INDEX 01 00:18:35
  TRACK 14 AUDIO
    TITLE "0:"
    INDEX 01 00:19:50
  TRACK 15 AUDIO
    TITLE "29:cjc123_5655"
    INDEX 01 00:19:60
  TRACK 16 AUDIO
    TITLE "0:"
    INDEX 01 00:21:33
  TRACK 17 AUDIO
    TITLE "30:cjc123_5656"
    INDEX 01 00:21:39
  TRACK 18 AUDIO
    TITLE "0:"
    INDEX 01 00:22:54
  TRACK 19 AUDIO
    TITLE "31:cjc123_5657"
    INDEX 01 00:23:30
  TRACK 20 AUDIO
    TITLE "0:"
    INDEX 01 00:27:36
  TRACK 21 AUDIO
    TITLE "32:cjc123_5658"
    INDEX 01 00:28:17
  TRACK 22 AUDIO
    TITLE "0:"
    INDEX 01 00:32:74
  TRACK 23 AUDIO
    TITLE "28:cjc123_5659"
    INDEX 01 00:33:28
  TRACK 24 AUDIO
    TITLE "0:"
    INDEX 01 00:34:36
  TRACK 25 AUDIO
    TITLE "29:cjc123_5660"
    INDEX 01 00:34:53
  TRACK 26 AUDIO
    TITLE "0:"
    INDEX 01 00:36:42
  TRACK 27 AUDIO
    TITLE "30:cjc123_5661"
    INDEX 01 00:36:52
  TRACK 28 AUDIO
    TITLE "0:"
    INDEX 01 00:37:57
  TRACK 29 AUDIO
    TITLE "31:cjc123_5662"
    INDEX 01 00:38:30
  TRACK 30 AUDIO
    TITLE "0:"
    INDEX 01 00:41:36
  TRACK 31 AUDIO
    TITLE "32:cjc123_5663"
    INDEX 01 00:42:16
  TRACK 32 AUDIO
    TITLE "0:"
    INDEX 01 00:46:02
  TRACK 33 AUDIO
    TITLE "28:cjc123_5664"
    INDEX 01 00:46:45
  TRACK 34 AUDIO
    TITLE "0:"
    INDEX 01 00:47:48
  TRACK 35 AUDIO
    TITLE "29:cjc123_5665"
    INDEX 01 00:47:64
  TRACK 36 AUDIO
    TITLE "0:"
    INDEX 01 00:49:31
  TRACK 37 AUDIO
    TITLE "30:cjc123_5666"
    INDEX 01 00:49:39
  TRACK 38 AUDIO
    TITLE "0:"
    INDEX 01 00:50:52
  TRACK 39 AUDIO
    TITLE "31:cjc123_5667"
    INDEX 01 00:51:24
  TRACK 40 AUDIO
    TITLE "0:"
    INDEX 01 00:54:48
  TRACK 41 AUDIO
    TITLE "32:cjc123_5668"
    INDEX 01 00:55:14
  TRACK 42 AUDIO
    TITLE "0:"
    INDEX 01 00:58:48
  TRACK 43 AUDIO
    TITLE "28:cjc123_5669"
    INDEX 01 00:59:20
  TRACK 44 AUDIO
    TITLE "0:"
    INDEX 01 01:00:27
  TRACK 45 AUDIO
    TITLE "29:cjc123_5670"
    INDEX 01 01:00:35
  TRACK 46 AUDIO
    TITLE "0:"
    INDEX 01 01:02:10
  TRACK 47 AUDIO
    TITLE "30:cjc123_5671"
    INDEX 01 01:02:14
  TRACK 48 AUDIO
    TITLE "0:"
    INDEX 01 01:03:12
  TRACK 49 AUDIO
    TITLE "31:cjc123_5672"
    INDEX 01 01:03:65
  TRACK 50 AUDIO
    TITLE "0:"
    INDEX 01 01:08:29
  TRACK 51 AUDIO
    TITLE "32:cjc123_5673"
    INDEX 01 01:08:50
  TRACK 52 AUDIO
    TITLE "0:"
    INDEX 01 01:12:15
  TRACK 53 AUDIO
    TITLE "28:cjc123_5674"
    INDEX 01 01:12:60
  TRACK 54 AUDIO
    TITLE "0:"
    INDEX 01 01:14:00
  TRACK 55 AUDIO
    TITLE "29:cjc123_5675"
    INDEX 01 01:14:25
  TRACK 56 AUDIO
    TITLE "0:"
    INDEX 01 01:16:11
  TRACK 57 AUDIO
    TITLE "30:cjc123_5676"
    INDEX 01 01:16:18
  TRACK 58 AUDIO
    TITLE "0:"
    INDEX 01 01:17:35
  TRACK 59 AUDIO
    TITLE "31:cjc123_5677"
    INDEX 01 01:18:11
  TRACK 60 AUDIO
    TITLE "0:"
    INDEX 01 01:23:56
  TRACK 61 AUDIO
    TITLE "32:cjc123_5678"
    INDEX 01 01:23:73
  TRACK 62 AUDIO
    TITLE "0:"
    INDEX 01 01:29:29
  TRACK 63 AUDIO
    TITLE "28:cjc123_5679"
    INDEX 01 01:29:74
  TRACK 64 AUDIO
    TITLE "0:"
    INDEX 01 01:30:69
  TRACK 65 AUDIO
    TITLE "29:cjc123_5680"
    INDEX 01 01:31:04
  TRACK 66 AUDIO
    TITLE "0:"
    INDEX 01 01:32:51
  TRACK 67 AUDIO
    TITLE "30:cjc123_5681"
    INDEX 01 01:32:59
  TRACK 68 AUDIO
    TITLE "0:"
    INDEX 01 01:33:54
  TRACK 69 AUDIO
    TITLE "31:cjc123_5682"
    INDEX 01 01:34:50
  TRACK 70 AUDIO
    TITLE "0:"
    INDEX 01 01:39:70
  TRACK 71 AUDIO
    TITLE "32:cjc123_5683"
    INDEX 01 01:40:29
  TRACK 72 AUDIO
    TITLE "0:"
    INDEX 01 01:45:24
  TRACK 73 AUDIO
    TITLE "28:cjc123_5684"
    INDEX 01 01:45:71
  TRACK 74 AUDIO
    TITLE "0:"
    INDEX 01 01:47:05
  TRACK 75 AUDIO
    TITLE "29:cjc123_5685"
    INDEX 01 01:47:23
  TRACK 76 AUDIO
    TITLE "0:"
    INDEX 01 01:49:02
  TRACK 77 AUDIO
    TITLE "30:cjc123_5686"
    INDEX 01 01:49:22
  TRACK 78 AUDIO
    TITLE "0:"
    INDEX 01 01:50:29
  TRACK 79 AUDIO
    TITLE "31:cjc123_5687"
    INDEX 01 01:51:05
  TRACK 80 AUDIO
    TITLE "0:"
    INDEX 01 01:54:41
  TRACK 81 AUDIO
    TITLE "32:cjc123_5688"
    INDEX 01 01:55:07
  TRACK 82 AUDIO
    TITLE "0:"
    INDEX 01 01:59:32
  TRACK 83 AUDIO
    TITLE "28:cjc123_5689"
    INDEX 01 02:00:29
  TRACK 84 AUDIO
    TITLE "0:"
    INDEX 01 02:01:27
  TRACK 85 AUDIO
    TITLE "29:cjc123_5690"
    INDEX 01 02:01:54
  TRACK 86 AUDIO
    TITLE "0:"
    INDEX 01 02:03:02
  TRACK 87 AUDIO
    TITLE "30:cjc123_5691"
    INDEX 01 02:03:32
  TRACK 88 AUDIO
    TITLE "0:"
    INDEX 01 02:04:21
  TRACK 89 AUDIO
    TITLE "31:cjc123_5692"
    INDEX 01 02:04:51
  TRACK 90 AUDIO
    TITLE "0:"
    INDEX 01 02:09:54
  TRACK 91 AUDIO
    TITLE "32:cjc123_5693"
    INDEX 01 02:10:06
  TRACK 92 AUDIO
    TITLE "0:"
    INDEX 01 02:15:29
  TRACK 93 AUDIO
    TITLE "28:cjc123_5694"
    INDEX 01 02:16:07
  TRACK 94 AUDIO
    TITLE "0:"
    INDEX 01 02:17:24
  TRACK 95 AUDIO
    TITLE "29:cjc123_5695"
    INDEX 01 02:17:40
  TRACK 96 AUDIO
    TITLE "0:"
    INDEX 01 02:19:17
  TRACK 97 AUDIO
    TITLE "30:cjc123_5696"
    INDEX 01 02:19:25
  TRACK 98 AUDIO
    TITLE "0:"
    INDEX 01 02:20:42
  TRACK 99 AUDIO
    TITLE "31:cjc123_5697"
    INDEX 01 02:21:16
  TRACK 100 AUDIO
    TITLE "0:"
    INDEX 01 02:24:42
  TRACK 101 AUDIO
    TITLE "32:cjc123_5698"
    INDEX 01 02:25:21
  TRACK 102 AUDIO
    TITLE "0:"
    INDEX 01 02:28:51
  TRACK 103 AUDIO
    TITLE "28:cjc123_5699"
    INDEX 01 02:29:19
  TRACK 104 AUDIO
    TITLE "0:"
    INDEX 01 02:30:48
  TRACK 105 AUDIO
    TITLE "29:cjc123_5700"
    INDEX 01 02:30:58
  TRACK 106 AUDIO
    TITLE "0:"
    INDEX 01 02:32:41
  TRACK 107 AUDIO
    TITLE "30:cjc123_5701"
    INDEX 01 02:32:49
  TRACK 108 AUDIO
    TITLE "0:"
    INDEX 01 02:33:66
  TRACK 109 AUDIO
    TITLE "31:cjc123_5702"
    INDEX 01 02:34:56
  TRACK 110 AUDIO
    TITLE "0:"
    INDEX 01 02:40:09
  TRACK 111 AUDIO
    TITLE "32:cjc123_5703"
    INDEX 01 02:40:45
  TRACK 112 AUDIO
    TITLE "0:"
    INDEX 01 02:45:03
  TRACK 113 AUDIO
    TITLE "28:cjc123_5704"
    INDEX 01 02:45:46
  TRACK 114 AUDIO
    TITLE "0:"
    INDEX 01 02:46:45
  TRACK 115 AUDIO
    TITLE "29:cjc123_5705"
    INDEX 01 02:46:61
  TRACK 116 AUDIO
    TITLE "0:"
    INDEX 01 02:48:34
  TRACK 117 AUDIO
    TITLE "30:cjc123_5706"
    INDEX 01 02:48:44
  TRACK 118 AUDIO
    TITLE "0:"
    INDEX 01 02:49:47
  TRACK 119 AUDIO
    TITLE "31:cjc123_5707"
    INDEX 01 02:50:47
  TRACK 120 AUDIO
    TITLE "0:"
    INDEX 01 02:54:68
  TRACK 121 AUDIO
    TITLE "32:cjc123_5708"
    INDEX 01 02:55:21
  TRACK 122 AUDIO
    TITLE "0:"
    INDEX 01 02:58:52
  TRACK 123 AUDIO
    TITLE "28:cjc123_5709"
    INDEX 01 02:59:15
  TRACK 124 AUDIO
    TITLE "0:"
    INDEX 01 03:00:08
  TRACK 125 AUDIO
    TITLE "29:cjc123_5710"
    INDEX 01 03:00:20
  TRACK 126 AUDIO
    TITLE "0:"
    INDEX 01 03:01:45
  TRACK 127 AUDIO
    TITLE "30:cjc123_5711"
    INDEX 01 03:01:62
  TRACK 128 AUDIO
    TITLE "0:"
    INDEX 01 03:02:50
  TRACK 129 AUDIO
    TITLE "31:cjc123_5712"
    INDEX 01 03:03:26
  TRACK 130 AUDIO
    TITLE "0:"
    INDEX 01 03:08:27
  TRACK 131 AUDIO
    TITLE "32:cjc123_5713"
    INDEX 01 03:09:01
  TRACK 132 AUDIO
    TITLE "0:"
    INDEX 01 03:13:17
  TRACK 133 AUDIO
    TITLE "28:cjc123_5714"
    INDEX 01 03:13:64
  TRACK 134 AUDIO
    TITLE "0:"
    INDEX 01 03:15:00
  TRACK 135 AUDIO
    TITLE "29:cjc123_5715"
    INDEX 01 03:15:14
  TRACK 136 AUDIO
    TITLE "0:"
    INDEX 01 03:16:72
  TRACK 137 AUDIO
    TITLE "30:cjc123_5716"
    INDEX 01 03:17:03
  TRACK 138 AUDIO
    TITLE "0:"
    INDEX 01 03:18:08
  TRACK 139 AUDIO
    TITLE "31:cjc123_5717"
    INDEX 01 03:18:73
  TRACK 140 AUDIO
    TITLE "0:"
    INDEX 01 03:24:54
  TRACK 141 AUDIO
    TITLE "32:cjc123_5718"
    INDEX 01 03:25:18
  TRACK 142 AUDIO
    TITLE "0:"
    INDEX 01 03:29:12
  TRACK 143 AUDIO
    TITLE "28:cjc123_5719"
    INDEX 01 03:29:59
  TRACK 144 AUDIO
    TITLE "0:"
    INDEX 01 03:30:72
  TRACK 145 AUDIO
    TITLE "29:cjc123_5720"
    INDEX 01 03:31:09
  TRACK 146 AUDIO
    TITLE "0:"
    INDEX 01 03:32:26
  TRACK 147 AUDIO
    TITLE "30:cjc123_5721"
    INDEX 01 03:32:34
  TRACK 148 AUDIO
    TITLE "0:"
    INDEX 01 03:33:45
  TRACK 149 AUDIO
    TITLE "31:cjc123_5722"
    INDEX 01 03:34:17
  TRACK 150 AUDIO
    TITLE "0:"
    INDEX 01 03:38:18
  TRACK 151 AUDIO
    TITLE "32:cjc123_5723"
    INDEX 01 03:38:60
  TRACK 152 AUDIO
    TITLE "0:"
    INDEX 01 03:42:55
